<svg width="36" height="36" viewBox="0 0 36 36" fill="none" xmlns="http://www.w3.org/2000/svg">
<g clip-path="url(#clip0_1376_17837)">
<path opacity="0.2" fill-rule="evenodd" clip-rule="evenodd" d="M22.1999 7.97141H20.2285C18.4801 7.97164 16.7813 8.55263 15.3989 9.62313C14.0165 10.6936 13.0289 12.193 12.5911 13.8857H12.3427C10.2513 13.8857 8.24556 14.7165 6.7667 16.1954C5.28785 17.6742 4.45703 19.68 4.45703 21.7714C4.45703 23.8628 5.28785 25.8686 6.7667 27.3475C8.24556 28.8263 10.2513 29.6571 12.3427 29.6571H28.1142C30.0532 29.6599 31.9252 28.9483 33.3727 27.6581C34.8201 26.3679 35.7415 24.5897 35.9608 22.6631C36.1801 20.7366 35.6818 18.7968 34.5613 17.2143C33.4408 15.6319 31.7765 14.5178 29.8865 14.0848C29.4849 12.347 28.5064 10.7965 27.1104 9.68624C25.7145 8.576 23.9835 7.97152 22.1999 7.97141Z" fill="#6B7684"/>
<path fill-rule="evenodd" clip-rule="evenodd" d="M18.2565 6H16.2851C14.5367 6.00023 12.8379 6.58122 11.4555 7.65172C10.0732 8.72222 9.08554 10.2216 8.64779 11.9143H8.39939C6.30797 11.9143 4.3022 12.7451 2.82334 14.224C1.34449 15.7028 0.513672 17.7086 0.513672 19.8C0.513672 21.8914 1.34449 23.8972 2.82334 25.376C4.3022 26.8549 6.30797 27.6857 8.39939 27.6857H24.1708C26.1098 27.6885 27.9819 26.9769 29.4293 25.6867C30.8768 24.3965 31.7982 22.6183 32.0174 20.6917C32.2367 18.7652 31.7385 16.8254 30.618 15.2429C29.4974 13.6605 27.8332 12.5464 25.9431 12.1134C25.5416 10.3756 24.563 8.82508 23.1671 7.71484C21.7711 6.60459 20.0402 6.00011 18.2565 6ZM10.1756 13.8857L10.5561 12.4071C10.8846 11.1375 11.6255 10.013 12.6625 9.21013C13.6994 8.40726 14.9737 7.97155 16.2851 7.97143H18.2565C21.0264 7.97143 23.4098 9.89357 24.021 12.555L24.297 13.7576L25.4996 14.0355C26.9132 14.3643 28.1566 15.2011 28.9934 16.387C29.8302 17.5728 30.2019 19.0248 30.0378 20.4668C29.8738 21.9089 29.1854 23.2403 28.1036 24.2078C27.0218 25.1754 25.6222 25.7115 24.1708 25.7143H8.39939C6.83082 25.7143 5.3265 25.0912 4.21736 23.982C3.10821 22.8729 2.4851 21.3686 2.4851 19.8C2.4851 18.2314 3.10821 16.7271 4.21736 15.618C5.3265 14.5088 6.83082 13.8857 8.39939 13.8857H10.1756Z" fill="#6B7684"/>
</g>
<defs>
<clipPath id="clip0_1376_17837">
<rect width="36" height="36" fill="white"/>
</clipPath>
</defs>
</svg>
