<svg width="17" height="16" viewBox="0 0 17 16" fill="none" xmlns="http://www.w3.org/2000/svg">
<path d="M14.4997 9.33203C14.3229 9.33203 14.1533 9.40227 14.0283 9.52729C13.9032 9.65232 13.833 9.82189 13.833 9.9987V12.6654C13.833 12.8422 13.7628 13.0117 13.6377 13.1368C13.5127 13.2618 13.3432 13.332 13.1663 13.332H3.83301C3.6562 13.332 3.48663 13.2618 3.3616 13.1368C3.23658 13.0117 3.16634 12.8422 3.16634 12.6654V9.9987C3.16634 9.82189 3.0961 9.65232 2.97108 9.52729C2.84605 9.40227 2.67649 9.33203 2.49967 9.33203C2.32286 9.33203 2.15329 9.40227 2.02827 9.52729C1.90325 9.65232 1.83301 9.82189 1.83301 9.9987V12.6654C1.83301 13.1958 2.04372 13.7045 2.41879 14.0796C2.79387 14.4547 3.30257 14.6654 3.83301 14.6654H13.1663C13.6968 14.6654 14.2055 14.4547 14.5806 14.0796C14.9556 13.7045 15.1663 13.1958 15.1663 12.6654V9.9987C15.1663 9.82189 15.0961 9.65232 14.9711 9.52729C14.8461 9.40227 14.6765 9.33203 14.4997 9.33203ZM8.02634 10.472C8.08974 10.5327 8.16451 10.5803 8.24634 10.612C8.32614 10.6473 8.41243 10.6655 8.49967 10.6655C8.58692 10.6655 8.67321 10.6473 8.75301 10.612C8.83484 10.5803 8.90961 10.5327 8.97301 10.472L11.6397 7.80536C11.7652 7.67983 11.8357 7.50957 11.8357 7.33203C11.8357 7.1545 11.7652 6.98423 11.6397 6.8587C11.5141 6.73316 11.3439 6.66264 11.1663 6.66264C10.9888 6.66264 10.8185 6.73316 10.693 6.8587L9.16634 8.39203V1.9987C9.16634 1.82189 9.0961 1.65232 8.97108 1.52729C8.84606 1.40227 8.67649 1.33203 8.49967 1.33203C8.32286 1.33203 8.15329 1.40227 8.02827 1.52729C7.90325 1.65232 7.83301 1.82189 7.83301 1.9987V8.39203L6.30634 6.8587C6.24418 6.79654 6.17039 6.74723 6.08917 6.71359C6.00796 6.67995 5.92091 6.66264 5.83301 6.66264C5.7451 6.66264 5.65806 6.67995 5.57684 6.71359C5.49563 6.74723 5.42183 6.79654 5.35967 6.8587C5.29752 6.92086 5.24821 6.99465 5.21457 7.07586C5.18093 7.15708 5.16361 7.24413 5.16361 7.33203C5.16361 7.41994 5.18093 7.50698 5.21457 7.5882C5.24821 7.66941 5.29752 7.74321 5.35967 7.80536L8.02634 10.472Z" fill="#6B7684"/>
</svg>
