<svg width="16" height="16" viewBox="0 0 16 16" fill="none" xmlns="http://www.w3.org/2000/svg">
<path fill-rule="evenodd" clip-rule="evenodd" d="M8.04544 7.07031C8.3537 7.07031 8.60358 7.3202 8.60358 7.62845V11.3494C8.60358 11.6576 8.3537 11.9075 8.04544 11.9075C7.73719 11.9075 7.4873 11.6576 7.4873 11.3494V7.62845C7.4873 7.3202 7.73719 7.07031 8.04544 7.07031Z" fill="white"/>
<path fill-rule="evenodd" clip-rule="evenodd" d="M5.58105 9.48783C5.58105 9.17958 5.83094 8.92969 6.13919 8.92969H9.86012C10.1684 8.92969 10.4183 9.17958 10.4183 9.48783C10.4183 9.79608 10.1684 10.046 9.86012 10.046H6.13919C5.83094 10.046 5.58105 9.79608 5.58105 9.48783Z" fill="white"/>
<path fill-rule="evenodd" clip-rule="evenodd" d="M1.69699 1.69699C1.31634 2.07764 1.11628 2.78671 1.11628 4.27907V11.7209C1.11628 13.2133 1.31634 13.9224 1.69699 14.303C2.07764 14.6837 2.78671 14.8837 4.27907 14.8837H11.7209C13.2133 14.8837 13.9224 14.6837 14.303 14.303C14.6837 13.9224 14.8837 13.2133 14.8837 11.7209V7.25581C14.8837 5.76345 14.6837 5.05438 14.303 4.67373C13.9224 4.29309 13.2133 4.09302 11.7209 4.09302H9.48837C9.06591 4.09302 8.72312 4.03079 8.4313 3.85442C8.17076 3.69695 8.00113 3.47266 7.87663 3.30805C7.86868 3.29753 7.8609 3.28726 7.8533 3.27726L7.85223 3.27584L6.73488 1.78605C6.50947 1.48549 6.40456 1.35755 6.26049 1.271C6.12963 1.19239 5.90517 1.11628 5.39535 1.11628H4.27907C2.78671 1.11628 2.07764 1.31634 1.69699 1.69699ZM0.907661 0.907661C1.64329 0.172029 2.79469 0 4.27907 0H5.39535C6.00181 0 6.45828 0.087608 6.83532 0.314112C7.18431 0.523762 7.41014 0.825413 7.60341 1.08357C7.61163 1.09456 7.61979 1.10546 7.62791 1.11628L8.74309 2.60319C8.89854 2.80768 8.94743 2.86204 9.0087 2.89907C9.05548 2.92735 9.16665 2.97674 9.48837 2.97674H11.7209C13.2053 2.97674 14.3567 3.14877 15.0923 3.88441C15.828 4.62004 16 5.77143 16 7.25581V11.7209C16 13.2053 15.828 14.3567 15.0923 15.0923C14.3567 15.828 13.2053 16 11.7209 16H4.27907C2.79469 16 1.64329 15.828 0.907661 15.0923C0.172029 14.3567 0 13.2053 0 11.7209V4.27907C0 2.79469 0.172029 1.64329 0.907661 0.907661Z" fill="white"/>
</svg>
