<svg width="19" height="20" viewBox="0 0 19 20" fill="none" xmlns="http://www.w3.org/2000/svg">
<path fill-rule="evenodd" clip-rule="evenodd" d="M7.72068 19.848C8.09068 20 8.56068 20 9.49968 20C10.4387 20 10.9087 20 11.2787 19.848C11.7712 19.6458 12.1633 19.2562 12.3687 18.765C12.4627 18.542 12.4987 18.281 12.5137 17.902C12.5204 17.6274 12.597 17.359 12.7362 17.1223C12.8755 16.8855 13.0729 16.6882 13.3097 16.549C13.5509 16.4149 13.8221 16.3439 14.0982 16.3425C14.3742 16.3411 14.6461 16.4093 14.8887 16.541C15.2267 16.719 15.4717 16.817 15.7137 16.849C16.2431 16.9185 16.7786 16.7762 17.2037 16.453C17.5217 16.211 17.7567 15.807 18.2257 15C18.6957 14.193 18.9297 13.79 18.9827 13.395C19.0527 12.869 18.9087 12.337 18.5827 11.916C18.4347 11.724 18.2257 11.563 17.9027 11.361C17.4257 11.064 17.1197 10.558 17.1197 10C17.1197 9.442 17.4257 8.936 17.9017 8.64C18.2257 8.437 18.4347 8.276 18.5837 8.084C18.7446 7.87606 18.8627 7.63829 18.9312 7.38443C18.9997 7.13057 19.0172 6.86566 18.9827 6.605C18.9297 6.211 18.6957 5.807 18.2257 5C17.7557 4.193 17.5217 3.79 17.2037 3.547C16.7797 3.224 16.2437 3.082 15.7137 3.151C15.4717 3.183 15.2267 3.281 14.8887 3.459C14.646 3.59083 14.3739 3.65922 14.0977 3.65782C13.8214 3.65642 13.5501 3.58528 13.3087 3.451C12.8227 3.171 12.5347 2.656 12.5137 2.098C12.4987 1.718 12.4627 1.458 12.3687 1.235C12.1647 0.745 11.7727 0.354999 11.2787 0.152C10.9087 -7.07365e-07 10.4387 -7.48454e-07 9.49969 -8.30544e-07C8.56069 -9.12634e-07 8.09069 -9.53723e-07 7.72069 0.151999C7.22814 0.354211 6.83607 0.743766 6.63069 1.235C6.53669 1.458 6.50069 1.718 6.48569 2.098C6.46569 2.656 6.17669 3.172 5.68969 3.451C5.44843 3.5851 5.17723 3.65614 4.90121 3.65754C4.62519 3.65894 4.35329 3.59065 4.11069 3.459C3.77269 3.281 3.52768 3.183 3.28569 3.151C2.75569 3.081 2.21969 3.224 1.79569 3.547C1.47769 3.789 1.24269 4.193 0.773687 5C0.303687 5.807 0.0696862 6.21 0.0166867 6.605C-0.0176723 6.86572 -1.41337e-05 7.13068 0.0686428 7.38454C0.1373 7.6384 0.255593 7.87613 0.416686 8.084C0.564687 8.276 0.773686 8.437 1.09669 8.639C1.57369 8.936 1.87969 9.442 1.87969 10C1.87969 10.558 1.57369 11.064 1.09769 11.36C0.773686 11.563 0.564687 11.724 0.415686 11.916C0.254769 12.1239 0.136655 12.3617 0.0681693 12.6156C-0.000315996 12.8694 -0.017814 13.1343 0.0166861 13.395C0.0696855 13.789 0.303687 14.193 0.773686 15C1.24369 15.807 1.47768 16.21 1.79569 16.453C2.22076 16.7762 2.75624 16.9185 3.28568 16.849C3.52768 16.817 3.77268 16.719 4.11068 16.541C4.35341 16.4092 4.6255 16.3408 4.90171 16.3422C5.17792 16.3436 5.44931 16.4147 5.69068 16.549C5.92729 16.6883 6.12446 16.8857 6.26357 17.1224C6.40267 17.3592 6.47912 17.6275 6.48568 17.902C6.50068 18.282 6.53668 18.542 6.63068 18.765C6.73233 19.0083 6.88091 19.2291 7.06794 19.4149C7.25496 19.6008 7.47677 19.7479 7.72068 19.848ZM9.49969 7C7.82969 7 6.47669 8.343 6.47669 10C6.47669 11.657 7.83069 13 9.49968 13C11.1697 13 12.5227 11.657 12.5227 10C12.5227 8.343 11.1687 7 9.49969 7Z" fill="#C8CDD4"/>
</svg>
