<svg width="36" height="36" viewBox="0 0 36 36" fill="none" xmlns="http://www.w3.org/2000/svg">
<path d="M25.3737 6.59485L11.8288 11.0948C2.72375 14.1398 2.72375 19.1048 11.8288 22.1348L15.8488 23.4698L17.1838 27.4898C20.2138 36.5948 25.1938 36.5948 28.2238 27.4898L32.7387 13.9598C34.7487 7.88485 31.4487 4.56985 25.3737 6.59485ZM25.8537 14.6648L20.1538 20.3948C19.9288 20.6198 19.6438 20.7248 19.3588 20.7248C19.0738 20.7248 18.7888 20.6198 18.5638 20.3948C18.1288 19.9598 18.1288 19.2399 18.5638 18.8048L24.2638 13.0748C24.6988 12.6398 25.4187 12.6398 25.8537 13.0748C26.2888 13.5098 26.2888 14.2298 25.8537 14.6648Z" fill="#DDE0E3"/>
<mask id="path-2-outside-1_3154_16002" maskUnits="userSpaceOnUse" x="2.83594" y="2.84515" width="30" height="30" fill="black">
<rect fill="white" x="2.83594" y="2.84515" width="30" height="30"/>
<path fill-rule="evenodd" clip-rule="evenodd" d="M24.525 5.389L10.9819 9.88837C10.9816 9.88846 10.9821 9.88829 10.9819 9.88837C8.77 10.6282 7.18845 11.4607 6.18034 12.2942C5.16871 13.1306 4.83594 13.8756 4.83594 14.4656C4.83594 15.0554 5.16841 15.7992 6.17958 16.6336C7.18742 17.4652 8.76796 18.2948 10.9799 19.031L15.4757 20.524L16.9685 25.0192C17.7046 27.2312 18.5351 28.8118 19.3678 29.8196C20.2031 30.8307 20.9485 31.1638 21.5397 31.1638C22.1309 31.1638 22.8762 30.8307 23.7116 29.8196C24.5443 28.8118 25.3748 27.2312 26.1108 25.0192L30.6253 11.4909C30.6254 11.4906 30.6252 11.4912 30.6253 11.4909C31.5792 8.60712 31.1581 6.73453 30.2165 5.79161C29.276 4.8498 27.4085 4.42784 24.525 5.389ZM31.5747 11.805L27.0597 25.335C24.0297 34.44 19.0497 34.44 16.0197 25.335L14.6847 21.315L10.6647 19.98C1.55969 16.95 1.55969 11.985 10.6647 8.94L24.2097 4.44C30.2847 2.415 33.5847 5.73 31.5747 11.805ZM23.0997 10.92C23.5347 10.485 24.2547 10.485 24.6897 10.92C25.1247 11.355 25.1247 12.075 24.6897 12.51L18.9897 18.24C18.7647 18.465 18.4797 18.57 18.1947 18.57C17.9097 18.57 17.6247 18.465 17.3997 18.24C16.9647 17.805 16.9647 17.085 17.3997 16.65L23.0997 10.92ZM16.6912 15.9443C16.6917 15.9438 16.6921 15.9434 16.6926 15.9429L22.3926 10.2129C23.2181 9.38737 24.5713 9.38737 25.3968 10.2129C26.2219 11.038 26.2223 12.3901 25.3982 13.2157C25.3977 13.2162 25.3972 13.2167 25.3968 13.2171L19.6968 18.9471C19.2744 19.3695 18.7306 19.57 18.1947 19.57C17.6588 19.57 17.115 19.3695 16.6926 18.9471C15.8675 18.122 15.8671 16.7699 16.6912 15.9443Z"/>
</mask>
<path fill-rule="evenodd" clip-rule="evenodd" d="M24.525 5.389L10.9819 9.88837C10.9816 9.88846 10.9821 9.88829 10.9819 9.88837C8.77 10.6282 7.18845 11.4607 6.18034 12.2942C5.16871 13.1306 4.83594 13.8756 4.83594 14.4656C4.83594 15.0554 5.16841 15.7992 6.17958 16.6336C7.18742 17.4652 8.76796 18.2948 10.9799 19.031L15.4757 20.524L16.9685 25.0192C17.7046 27.2312 18.5351 28.8118 19.3678 29.8196C20.2031 30.8307 20.9485 31.1638 21.5397 31.1638C22.1309 31.1638 22.8762 30.8307 23.7116 29.8196C24.5443 28.8118 25.3748 27.2312 26.1108 25.0192L30.6253 11.4909C30.6254 11.4906 30.6252 11.4912 30.6253 11.4909C31.5792 8.60712 31.1581 6.73453 30.2165 5.79161C29.276 4.8498 27.4085 4.42784 24.525 5.389ZM31.5747 11.805L27.0597 25.335C24.0297 34.44 19.0497 34.44 16.0197 25.335L14.6847 21.315L10.6647 19.98C1.55969 16.95 1.55969 11.985 10.6647 8.94L24.2097 4.44C30.2847 2.415 33.5847 5.73 31.5747 11.805ZM23.0997 10.92C23.5347 10.485 24.2547 10.485 24.6897 10.92C25.1247 11.355 25.1247 12.075 24.6897 12.51L18.9897 18.24C18.7647 18.465 18.4797 18.57 18.1947 18.57C17.9097 18.57 17.6247 18.465 17.3997 18.24C16.9647 17.805 16.9647 17.085 17.3997 16.65L23.0997 10.92ZM16.6912 15.9443C16.6917 15.9438 16.6921 15.9434 16.6926 15.9429L22.3926 10.2129C23.2181 9.38737 24.5713 9.38737 25.3968 10.2129C26.2219 11.038 26.2223 12.3901 25.3982 13.2157C25.3977 13.2162 25.3972 13.2167 25.3968 13.2171L19.6968 18.9471C19.2744 19.3695 18.7306 19.57 18.1947 19.57C17.6588 19.57 17.115 19.3695 16.6926 18.9471C15.8675 18.122 15.8671 16.7699 16.6912 15.9443Z" fill="#6B7684"/>
<path d="M11.0594 18.7939C11.0591 18.7939 11.0596 18.794 11.0594 18.7939C11.0593 18.7939 11.0594 18.7939 11.0594 18.7939C11.0594 18.7939 11.0594 18.7939 11.0594 18.7939C11.0593 18.7939 11.0594 18.7939 11.0593 18.7939C11.0593 18.7939 11.0593 18.7939 11.0593 18.7939C11.0593 18.7939 11.0593 18.7939 11.0593 18.7939C11.0593 18.7939 11.0594 18.7939 11.0593 18.7939C11.0593 18.7939 11.0593 18.7939 11.0593 18.7939C10.9798 19.281 10.9003 19.268 10.9003 19.268C10.9003 19.268 10.9003 19.268 10.9003 19.268C10.9003 19.268 10.9003 19.268 10.9003 19.268C10.9003 19.268 10.9003 19.268 10.9003 19.268C10.9003 19.268 10.9003 19.268 10.9003 19.268C10.9003 19.268 10.9003 19.268 10.9003 19.268C10.9003 19.268 10.9003 19.268 10.9003 19.268C10.9006 19.2681 10.9001 19.2679 10.9003 19.268C10.9003 19.268 10.9003 19.268 10.9003 19.268C10.9004 19.268 10.9003 19.268 10.9004 19.268C10.9004 19.268 10.9003 19.268 10.9004 19.268C10.9004 19.268 10.9003 19.268 10.9004 19.268C10.9004 19.268 10.9004 19.268 10.9004 19.268C10.9004 19.268 10.9004 19.268 10.9004 19.268C10.9004 19.268 10.9004 19.268 10.9004 19.268C10.9004 19.268 10.9004 19.268 10.9004 19.268C10.9004 19.268 10.9004 19.268 10.9004 19.268C10.9004 19.268 10.9004 19.268 10.9004 19.268C10.9004 19.268 10.9004 19.268 10.9004 19.268C10.9004 19.268 10.9004 19.268 10.9004 19.268C10.9004 19.268 10.9003 19.268 10.9004 19.268C10.9004 19.268 10.9004 19.268 10.9004 19.268C10.9004 19.268 10.9004 19.268 10.9004 19.268C10.9004 19.268 10.9004 19.268 10.9004 19.268C10.9004 19.268 10.9799 19.281 11.0594 18.794C11.0594 18.794 11.0594 18.794 11.0594 18.794C11.0594 18.794 11.0594 18.794 11.0594 18.794C11.0594 18.794 11.0594 18.794 11.0594 18.794C11.0594 18.794 11.0594 18.794 11.0594 18.794C11.0594 18.794 11.0594 18.794 11.0594 18.794C11.0594 18.794 11.0594 18.794 11.0594 18.794C11.0594 18.794 11.0594 18.794 11.0594 18.794C11.0594 18.794 11.0594 18.794 11.0594 18.794C11.0594 18.794 11.0594 18.794 11.0594 18.794C11.0594 18.794 11.0594 18.794 11.0594 18.794C11.0594 18.794 11.0594 18.794 11.0594 18.794C11.0593 18.7939 11.0595 18.794 11.0594 18.7939L10.9003 19.268C10.9006 19.2681 10.9001 19.2679 10.9003 19.268C10.9004 19.268 10.9003 19.268 10.9004 19.268C10.9004 19.268 10.9004 19.268 10.9004 19.268C10.9004 19.268 10.9003 19.268 10.9004 19.268C10.9004 19.268 10.9004 19.268 10.9004 19.268C10.9004 19.268 10.9004 19.268 10.9004 19.268C10.9004 19.268 10.9003 19.268 10.9004 19.268C10.9004 19.268 10.9004 19.268 10.9004 19.268C10.9799 18.781 11.0594 18.794 11.0594 18.794C11.0594 18.794 11.0594 18.794 11.0594 18.794C11.0594 18.794 11.0594 18.794 11.0594 18.794C11.0594 18.794 11.0594 18.794 11.0594 18.794C11.0594 18.794 11.0594 18.794 11.0594 18.794C11.0594 18.7939 11.0594 18.794 11.0594 18.794C11.0594 18.794 11.0594 18.794 11.0594 18.794C11.0591 18.7939 11.0596 18.794 11.0594 18.794C11.0594 18.7939 11.0594 18.794 11.0594 18.7939C11.0593 18.7939 11.0595 18.794 11.0594 18.7939C11.0593 18.7939 11.0594 18.794 11.0594 18.7939C11.0593 18.7939 11.0594 18.7939 11.0594 18.7939C11.0593 18.7939 11.0593 18.7939 11.0593 18.7939C11.0593 18.7939 11.0593 18.7939 11.0593 18.7939C11.0593 18.7939 11.0593 18.7939 11.0593 18.7939C11.0593 18.7939 11.0593 18.7939 11.0593 18.7939C11.0593 18.7939 11.0593 18.7939 11.0593 18.7939C11.0593 18.7939 11.0593 18.7939 11.0593 18.7939C11.0593 18.7939 11.0593 18.7939 11.0593 18.7939C11.0593 18.7939 11.0593 18.7939 11.0593 18.7939C11.0593 18.7939 11.0594 18.7939 11.0593 18.7939C11.0593 18.7939 11.0593 18.7939 11.0593 18.7939C11.0593 18.7939 11.0593 18.7939 11.0593 18.7939C11.0593 18.7939 11.0593 18.7939 11.0593 18.7939C11.0593 18.7939 10.9798 18.781 10.9003 19.268C10.9003 19.268 10.9003 19.268 10.9003 19.268C10.9003 19.268 10.9003 19.268 10.9003 19.268C10.9003 19.268 10.9003 19.268 10.9003 19.268C10.9003 19.268 10.9003 19.268 10.9003 19.268C10.9003 19.268 10.9003 19.268 10.9003 19.268C10.9003 19.268 10.9003 19.268 10.9003 19.268C10.9003 19.268 10.9003 19.268 10.9003 19.268C10.9003 19.268 10.9003 19.268 10.9003 19.268C10.9003 19.268 10.9003 19.268 10.9003 19.268C10.9003 19.268 10.9003 19.268 10.9003 19.268C10.9003 19.268 10.9003 19.268 10.9003 19.268C10.9004 19.268 10.9002 19.2679 10.9003 19.268L11.0594 18.7939ZM24.525 5.389L24.6826 5.8635L24.6831 5.86334L24.525 5.389ZM6.18034 12.2942L6.49895 12.6796L6.49895 12.6796L6.18034 12.2942ZM6.17958 16.6336L5.86135 17.0193L5.86135 17.0193L6.17958 16.6336ZM15.4757 20.524L15.9502 20.3664L15.8712 20.1285L15.6333 20.0495L15.4757 20.524ZM16.9685 25.0192L16.494 25.1768L16.4941 25.1771L16.9685 25.0192ZM19.3678 29.8196L18.9823 30.1381L18.9823 30.1381L19.3678 29.8196ZM23.7116 29.8196L24.097 30.1381L24.097 30.1381L23.7116 29.8196ZM26.1108 25.0192L25.6366 24.861L25.6364 24.8614L26.1108 25.0192ZM30.2165 5.79161L29.8627 6.14492L29.8627 6.14492L30.2165 5.79161ZM27.0597 25.335L26.5854 25.1767L26.5853 25.1771L27.0597 25.335ZM31.5747 11.805L32.049 11.9633L32.0494 11.9621L31.5747 11.805ZM16.0197 25.335L15.5452 25.4926L15.5453 25.4929L16.0197 25.335ZM14.6847 21.315L15.1592 21.1574L15.0802 20.9195L14.8423 20.8405L14.6847 21.315ZM10.6647 19.98L10.5068 20.4544L10.5071 20.4545L10.6647 19.98ZM10.6647 8.94L10.507 8.4655L10.5061 8.46582L10.6647 8.94ZM24.2097 4.44L24.3673 4.9145L24.3678 4.91434L24.2097 4.44ZM23.0997 10.92L22.7461 10.5664L22.7452 10.5674L23.0997 10.92ZM24.6897 10.92L24.3361 11.2736L24.3361 11.2736L24.6897 10.92ZM24.6897 12.51L24.3361 12.1564L24.3352 12.1574L24.6897 12.51ZM18.9897 18.24L19.3432 18.5936L19.3442 18.5926L18.9897 18.24ZM17.3997 18.24L17.7532 17.8865L17.7532 17.8864L17.3997 18.24ZM17.3997 16.65L17.7532 17.0036L17.7542 17.0026L17.3997 16.65ZM16.6926 15.9429L17.0461 16.2965L17.0471 16.2955L16.6926 15.9429ZM16.6912 15.9443L17.0451 16.2975L17.0451 16.2974L16.6912 15.9443ZM22.3926 10.2129L22.039 9.85934L22.0381 9.86027L22.3926 10.2129ZM25.3968 10.2129L25.7503 9.85934L25.7503 9.85934L25.3968 10.2129ZM25.3982 13.2157L25.0443 12.8625L25.0442 12.8626L25.3982 13.2157ZM25.3968 13.2171L25.0429 12.8639L25.0423 12.8645L25.3968 13.2171ZM19.6968 18.9471L20.0504 19.3007L20.0513 19.2997L19.6968 18.9471ZM16.6926 18.9471L17.0461 18.5936L17.0461 18.5936L16.6926 18.9471ZM11.1405 10.3625C11.1405 10.3625 11.1405 10.3625 11.1405 10.3625C11.1406 10.3625 11.1405 10.3625 11.1406 10.3625C11.1406 10.3625 11.1405 10.3625 11.1406 10.3625C11.1406 10.3625 11.1406 10.3625 11.1406 10.3625C11.1406 10.3625 11.1406 10.3625 11.1406 10.3625C11.1406 10.3625 11.1405 10.3625 11.1406 10.3625C11.1406 10.3625 11.1406 10.3625 11.1406 10.3625C11.1406 10.3625 11.1406 10.3625 11.1406 10.3625C10.9819 9.38835 10.8233 9.41418 10.8233 9.41418C10.8233 9.41418 10.8233 9.41418 10.8233 9.41418C10.8233 9.41418 10.8233 9.41418 10.8233 9.41418C10.8233 9.41418 10.8233 9.41418 10.8233 9.41418C10.8233 9.41418 10.8233 9.41418 10.8233 9.41418C10.8233 9.41418 10.8233 9.41418 10.8233 9.41418C10.8233 9.41418 10.8233 9.41418 10.8233 9.41418C10.8233 9.41419 10.8233 9.41418 10.8233 9.41419C10.8233 9.41419 10.8232 9.4142 10.8232 9.4142C10.8232 9.41421 10.8232 9.41421 10.8232 9.41422C10.8231 9.41425 10.8232 9.4142 10.8232 9.41423C10.8232 9.41423 10.8232 9.41423 10.8232 9.41423C10.8232 9.41423 10.8232 9.41423 10.8232 9.41423C10.8232 9.41423 10.8232 9.41423 10.8232 9.41423C10.8232 9.41423 10.8232 9.41423 10.8232 9.41423C10.8232 9.41423 10.8232 9.41423 10.8232 9.41423C10.8232 9.41423 10.8232 9.41423 10.8232 9.41423C10.8232 9.41423 10.8232 9.41423 10.8232 9.41423C10.8232 9.41423 10.8232 9.41423 10.8232 9.41423C10.8232 9.41423 10.8232 9.41423 10.8232 9.41423C10.8232 9.41423 10.9818 9.3884 11.1404 10.3626C11.1404 10.3626 11.1404 10.3626 11.1404 10.3626C11.1404 10.3626 11.1404 10.3626 11.1404 10.3626C11.1404 10.3626 11.1404 10.3626 11.1404 10.3626C11.1404 10.3626 11.1404 10.3626 11.1404 10.3626C11.1406 10.3625 11.1402 10.3626 11.1404 10.3626C11.1405 10.3625 11.1404 10.3626 11.1405 10.3626C11.1405 10.3625 11.1404 10.3626 11.1405 10.3625C11.1405 10.3625 11.1405 10.3626 11.1405 10.3625C11.1405 10.3625 11.1405 10.3625 11.1405 10.3625C11.1405 10.3625 11.1405 10.3625 11.1405 10.3625C11.1405 10.3625 11.1405 10.3625 11.1405 10.3625L10.8232 9.4142C10.8232 9.41422 10.8232 9.41422 10.8232 9.41422C10.8232 9.41423 10.8232 9.41423 10.8232 9.41423C10.8231 9.41424 10.8232 9.41422 10.8232 9.41423C10.8232 9.41423 10.8232 9.41423 10.8232 9.41423C10.8232 9.41423 10.8232 9.41423 10.8232 9.41423C10.8231 9.41424 10.8232 9.41421 10.8232 9.41423C10.8231 9.41423 10.8232 9.41423 10.8232 9.41423C10.8232 9.41423 10.8232 9.41423 10.8232 9.41423C10.9818 10.3884 11.1404 10.3626 11.1404 10.3626C11.1404 10.3626 11.1404 10.3626 11.1404 10.3626C11.1404 10.3626 11.1404 10.3626 11.1404 10.3626C11.1404 10.3626 11.1404 10.3626 11.1404 10.3626C11.1404 10.3626 11.1404 10.3626 11.1404 10.3626C11.1404 10.3626 11.1404 10.3626 11.1404 10.3626C11.1404 10.3626 11.1404 10.3626 11.1404 10.3626C11.1404 10.3626 11.1404 10.3626 11.1404 10.3626C11.1404 10.3626 11.1405 10.3625 11.1405 10.3625C11.1405 10.3625 11.1405 10.3625 11.1405 10.3625C11.1406 10.3625 11.1405 10.3625 11.1406 10.3625C11.1406 10.3625 11.1406 10.3625 11.1406 10.3625C11.1406 10.3625 11.1406 10.3625 11.1406 10.3625C11.1406 10.3625 11.1406 10.3625 11.1406 10.3625C11.1406 10.3625 11.1406 10.3625 11.1406 10.3625C11.1406 10.3625 11.1406 10.3625 11.1406 10.3625C11.1406 10.3625 11.1406 10.3625 11.1406 10.3625C11.1406 10.3625 11.1406 10.3625 11.1406 10.3625C11.1406 10.3625 11.1406 10.3625 11.1406 10.3625C11.1406 10.3625 11.1406 10.3625 11.1406 10.3625C11.1406 10.3625 10.9819 10.3883 10.8233 9.41418C10.8233 9.41418 10.8233 9.41418 10.8233 9.41418C10.8233 9.41418 10.8233 9.41418 10.8233 9.41418C10.8233 9.41418 10.8233 9.41417 10.8233 9.41418C10.8233 9.41418 10.8233 9.41418 10.8233 9.41418C10.8231 9.41425 10.8235 9.41412 10.8233 9.41419C10.8232 9.4142 10.8233 9.41418 10.8233 9.4142C10.8232 9.4142 10.8233 9.41419 10.8232 9.4142C10.8232 9.4142 10.8232 9.4142 10.8232 9.4142C10.8232 9.4142 10.8232 9.4142 10.8232 9.4142C10.8232 9.4142 10.8232 9.4142 10.8232 9.4142C10.8232 9.4142 10.8232 9.4142 10.8232 9.4142L11.1405 10.3625ZM6.49895 12.6796C7.44209 11.8997 8.96054 11.0917 11.1404 10.3626L10.8233 9.41419C8.57945 10.1647 6.93481 11.0216 5.86173 11.9089L6.49895 12.6796ZM5.33594 14.4656C5.33594 14.0797 5.55167 13.4628 6.49895 12.6796L5.86173 11.9089C4.78575 12.7985 4.33594 13.6715 4.33594 14.4656H5.33594ZM6.49781 16.248C5.55123 15.4669 5.33594 14.8511 5.33594 14.4656H4.33594C4.33594 15.2597 4.78559 16.1316 5.86135 17.0193L6.49781 16.248ZM11.1377 18.5566C8.95786 17.8311 7.44054 17.0259 6.49781 16.248L5.86135 17.0193C6.93429 17.9046 8.57806 18.7586 10.822 19.5054L11.1377 18.5566ZM19.7533 29.5012C18.9744 28.5584 18.1683 27.0411 17.4429 24.8614L16.4941 25.1771C17.2409 27.4212 18.0958 29.0651 18.9823 30.1381L19.7533 29.5012ZM21.5397 30.6638C21.1525 30.6638 20.5352 30.4476 19.7533 29.5012L18.9823 30.1381C19.8711 31.2138 20.7445 31.6638 21.5397 31.6638V30.6638ZM23.3261 29.5012C22.5442 30.4476 21.9269 30.6638 21.5397 30.6638V31.6638C22.3349 31.6638 23.2083 31.2138 24.097 30.1381L23.3261 29.5012ZM25.6364 24.8614C24.911 27.0411 24.105 28.5584 23.3261 29.5012L24.097 30.1381C24.9835 29.0651 25.8385 27.4212 26.5853 25.1771L25.6364 24.8614ZM30.1504 11.3343C30.1504 11.3345 30.1505 11.3342 30.1504 11.3344C30.1504 11.3344 30.1504 11.3344 30.1504 11.3344C30.1504 11.3344 30.1504 11.3344 30.1504 11.3344C30.1504 11.3344 30.1504 11.3344 30.1504 11.3344C30.1504 11.3344 30.1504 11.3344 30.1504 11.3344C30.1504 11.3344 30.1504 11.3344 30.1504 11.3344C30.1504 11.3344 30.1504 11.3344 30.1504 11.3344C30.1504 11.3344 30.1504 11.3344 30.1504 11.3344C30.1504 11.3344 30.1504 11.3344 30.1504 11.3344C30.1504 11.3344 30.1504 11.3344 30.1504 11.3344C30.6253 11.491 31.1001 11.6475 31.1001 11.6475C31.1001 11.6475 31.1001 11.6475 31.1001 11.6475C31.1001 11.6475 31.1001 11.6475 31.1001 11.6475C31.1001 11.6475 31.1001 11.6475 31.1001 11.6475C31.1001 11.6475 31.1001 11.6475 31.1001 11.6475C31.1001 11.6475 31.1001 11.6475 31.1001 11.6475C31.1001 11.6475 31.1001 11.6475 31.1001 11.6475C31.1001 11.6475 31.1001 11.6475 31.1001 11.6475C31.1001 11.6475 31.1001 11.6475 31.1001 11.6475C31.1001 11.6475 31.1001 11.6475 31.1001 11.6475C31.1001 11.6475 31.1001 11.6475 31.1001 11.6475C31.1001 11.6475 31.1001 11.6475 31.1001 11.6475C31.1002 11.6472 31.1001 11.6477 31.1002 11.6474C31.1002 11.6474 31.1002 11.6475 31.1002 11.6474C31.1002 11.6474 31.1002 11.6474 31.1002 11.6474C31.1002 11.6474 31.1002 11.6474 31.1002 11.6474C31.1002 11.6474 31.1002 11.6474 31.1002 11.6474C31.1002 11.6474 31.1002 11.6474 31.1002 11.6474C31.1002 11.6474 31.1002 11.6474 31.1002 11.6474C31.1002 11.6474 31.1002 11.6474 31.1002 11.6474C31.1002 11.6474 31.1002 11.6474 31.1002 11.6474C31.1002 11.6474 30.6253 11.4908 30.1505 11.3342C30.1505 11.3342 30.1505 11.3342 30.1505 11.3342C30.1505 11.3342 30.1505 11.3342 30.1505 11.3342C30.1505 11.3342 30.1505 11.3342 30.1505 11.3342C30.1505 11.3342 30.1505 11.3342 30.1505 11.3342C30.1504 11.3343 30.1505 11.3341 30.1505 11.3342C30.1505 11.3342 30.1505 11.3342 30.1505 11.3342C30.1505 11.3342 30.1505 11.3342 30.1505 11.3342C30.1505 11.3342 30.1505 11.3342 30.1505 11.3342C30.1505 11.3342 30.1505 11.3342 30.1505 11.3342C30.1505 11.3342 30.1505 11.3342 30.1505 11.3342C30.1504 11.3345 30.1505 11.3341 30.1504 11.3343L31.1002 11.6474C31.1002 11.6473 31.1001 11.6475 31.1002 11.6474C31.1002 11.6474 31.1002 11.6474 31.1002 11.6474C31.1002 11.6474 31.1002 11.6474 31.1002 11.6474C31.1002 11.6474 31.1002 11.6474 31.1002 11.6474C31.1002 11.6474 31.1002 11.6474 31.1002 11.6474C31.1002 11.6474 31.1002 11.6474 31.1002 11.6474C31.1002 11.6474 31.1002 11.6474 31.1002 11.6474C31.1002 11.6474 31.1002 11.6474 31.1002 11.6474C31.1002 11.6474 31.1002 11.6474 31.1002 11.6474C31.1002 11.6474 31.1002 11.6474 31.1002 11.6474C30.6253 11.4908 30.1505 11.3342 30.1505 11.3342C30.1505 11.3342 30.1505 11.3342 30.1505 11.3342C30.1505 11.3342 30.1505 11.3342 30.1505 11.3342C30.1505 11.3342 30.1505 11.3342 30.1505 11.3342C30.1505 11.3342 30.1505 11.3342 30.1505 11.3342C30.1505 11.3342 30.1505 11.3342 30.1505 11.3342C30.1505 11.3342 30.1505 11.3342 30.1505 11.3342C30.1505 11.3342 30.1505 11.3342 30.1505 11.3342C30.1505 11.3342 30.1505 11.3342 30.1505 11.3342C30.1505 11.3342 30.1505 11.3342 30.1505 11.3342C30.1505 11.3342 30.1505 11.3342 30.1505 11.3342C30.1505 11.3343 30.1505 11.3342 30.1505 11.3343C30.1504 11.3346 30.1505 11.334 30.1504 11.3343C30.1504 11.3344 30.1505 11.3343 30.1504 11.3344C30.1504 11.3344 30.1504 11.3344 30.1504 11.3344C30.1504 11.3344 30.1504 11.3344 30.1504 11.3344C30.1504 11.3344 30.1504 11.3344 30.1504 11.3344C30.1504 11.3344 30.1504 11.3344 30.1504 11.3344C30.1504 11.3344 30.1504 11.3344 30.1504 11.3344C30.1504 11.3344 30.1504 11.3344 30.1504 11.3344C30.1504 11.3344 30.1504 11.3344 30.1504 11.3344C30.1504 11.3344 30.6253 11.491 31.1001 11.6475C31.1001 11.6475 31.1001 11.6475 31.1001 11.6475C31.1001 11.6475 31.1001 11.6475 31.1001 11.6475C31.1001 11.6475 31.1001 11.6475 31.1001 11.6475C31.1001 11.6475 31.1001 11.6475 31.1001 11.6475C31.1002 11.6474 31.1001 11.6476 31.1001 11.6475C31.1001 11.6475 31.1001 11.6475 31.1001 11.6475C31.1001 11.6475 31.1001 11.6475 31.1001 11.6475C31.1001 11.6475 31.1001 11.6475 31.1001 11.6475C31.1001 11.6475 31.1001 11.6475 31.1001 11.6475C31.1001 11.6475 31.1001 11.6475 31.1001 11.6475C31.1002 11.6473 31.1001 11.6477 31.1002 11.6474L30.1504 11.3343ZM29.8627 6.14492C30.6095 6.89283 31.0785 8.52867 30.1506 11.3339L31.1 11.6479C32.0799 8.68556 31.7066 6.57623 30.5703 5.43831L29.8627 6.14492ZM24.6831 5.86334C27.4876 4.92852 29.1175 5.39871 29.8627 6.14492L30.5703 5.43831C29.4344 4.30089 27.3293 3.92716 24.3669 4.91466L24.6831 5.86334ZM27.534 25.4933L32.049 11.9633L31.1004 11.6467L26.5854 25.1767L27.534 25.4933ZM15.5453 25.4929C16.3135 27.8013 17.2173 29.5718 18.2114 30.775C19.2042 31.9767 20.3334 32.6638 21.5397 32.6638C22.746 32.6638 23.8752 31.9767 24.868 30.775C25.8621 29.5718 26.7659 27.8013 27.5341 25.4929L26.5853 25.1771C25.8385 27.4212 24.9835 29.0651 24.097 30.1381C23.2092 31.2127 22.3359 31.6638 21.5397 31.6638C20.7435 31.6638 19.8702 31.2127 18.9823 30.1381C18.0958 29.0651 17.2409 27.4212 16.4941 25.1771L15.5453 25.4929ZM14.2102 21.4726L15.5452 25.4926L16.4942 25.1774L15.1592 21.1574L14.2102 21.4726ZM10.5071 20.4545L14.5271 21.7895L14.8423 20.8405L10.8223 19.5055L10.5071 20.4545ZM10.5061 8.46582C8.19787 9.23777 6.42759 10.1435 5.22452 11.1382C4.02315 12.1315 3.33594 13.2602 3.33594 14.4656C3.33594 15.6712 4.02329 16.7991 5.2249 17.7906C6.42812 18.7834 8.19853 19.6863 10.5068 20.4544L10.8226 19.5056C8.57834 18.7587 6.93438 17.9047 5.86135 17.0193C4.78671 16.1325 4.33594 15.2607 4.33594 14.4656C4.33594 13.6704 4.78685 12.7976 5.86173 11.9089C6.93491 11.0215 8.57901 10.1647 10.8233 9.41419L10.5061 8.46582ZM24.052 3.9655L10.507 8.4655L10.8223 9.4145L24.3673 4.9145L24.052 3.9655ZM32.0494 11.9621C33.0797 8.84796 32.8067 6.26269 31.2779 4.7317C29.7484 3.2001 27.1661 2.92749 24.0516 3.96566L24.3678 4.91434C27.3283 3.92751 29.4335 4.2999 30.5703 5.43831C31.7077 6.57732 32.0796 8.68705 31.1 11.6479L32.0494 11.9621ZM23.4532 11.2736C23.693 11.0338 24.0964 11.0338 24.3361 11.2736L25.0432 10.5665C24.413 9.93619 23.3764 9.93619 22.7461 10.5664L23.4532 11.2736ZM24.3361 11.2736C24.5759 11.5133 24.5759 11.9167 24.3361 12.1564L25.0432 12.8636C25.6735 12.2333 25.6735 11.1967 25.0432 10.5664L24.3361 11.2736ZM24.3352 12.1574L18.6352 17.8874L19.3442 18.5926L25.0442 12.8626L24.3352 12.1574ZM18.6361 17.8864C18.5098 18.0127 18.3542 18.07 18.1947 18.07V19.07C18.6051 19.07 19.0195 18.9173 19.3432 18.5936L18.6361 17.8864ZM18.1947 18.07C18.0351 18.07 17.8795 18.0127 17.7532 17.8865L17.0461 18.5936C17.3698 18.9173 17.7842 19.07 18.1947 19.07V18.07ZM17.7532 17.8864C17.5135 17.6467 17.5135 17.2433 17.7532 17.0036L17.0461 16.2965C16.4159 16.9267 16.4159 17.9633 17.0461 18.5936L17.7532 17.8864ZM17.7542 17.0026L23.4542 11.2726L22.7452 10.5674L17.0452 16.2974L17.7542 17.0026ZM16.339 15.5893C16.3386 15.5898 16.338 15.5904 16.3373 15.5911L17.0451 16.2974C17.0454 16.2972 17.0457 16.2969 17.0461 16.2965L16.339 15.5893ZM25.7503 9.85934C24.7296 8.83856 23.0598 8.83856 22.039 9.85934L22.7461 10.5664C23.3764 9.93619 24.413 9.93619 25.0432 10.5665L25.7503 9.85934ZM25.752 13.569C26.7711 12.548 26.7706 10.8796 25.7503 9.85934L25.0432 10.5665C25.6731 11.1964 25.6735 12.2322 25.0443 12.8625L25.752 13.569ZM25.7507 13.5703C25.7507 13.5703 25.7507 13.5703 25.7508 13.5702C25.7508 13.5702 25.7509 13.5701 25.751 13.57C25.7512 13.5698 25.7516 13.5694 25.7521 13.5689L25.0442 12.8626C25.0442 12.8626 25.0442 12.8626 25.0442 12.8626C25.0441 12.8627 25.044 12.8628 25.0439 12.8629C25.0437 12.8631 25.0433 12.8635 25.0429 12.8639L25.7507 13.5703ZM18.1947 20.07C18.8558 20.07 19.5291 19.8219 20.0503 19.3007L19.3432 18.5936C19.0197 18.9171 18.6054 19.07 18.1947 19.07V20.07ZM16.339 19.3007C16.8603 19.8219 17.5335 20.07 18.1947 20.07V19.07C17.784 19.07 17.3697 18.9171 17.0461 18.5936L16.339 19.3007ZM16.3373 15.591C15.3182 16.612 15.3188 18.2804 16.339 19.3007L17.0461 18.5936C16.4162 17.9636 16.4159 16.9279 17.0451 16.2975L16.3373 15.591ZM11.1395 10.3629L24.6826 5.8635L24.3673 4.9145L10.8242 9.41387L11.1395 10.3629ZM15.6333 20.0495L11.1374 18.5564L10.8223 19.5055L15.3181 20.9985L15.6333 20.0495ZM17.443 24.8617L15.9502 20.3664L15.0012 20.6816L16.494 25.1768L17.443 24.8617ZM30.151 11.3326L25.6366 24.861L26.5851 25.1775L31.0996 11.6492L30.151 11.3326ZM22.0381 9.86027L16.3381 15.5903L17.0471 16.2955L22.7471 10.5655L22.0381 9.86027ZM20.0513 19.2997L25.7513 13.5697L25.0423 12.8645L19.3423 18.5945L20.0513 19.2997Z" fill="#6B7684" mask="url(#path-2-outside-1_3154_16002)"/>
</svg>
