<svg width="48" height="48" viewBox="0 0 48 48" fill="none" xmlns="http://www.w3.org/2000/svg">
<path fill-rule="evenodd" clip-rule="evenodd" d="M32.9393 16.9393C33.5251 16.3536 34.4749 16.3536 35.0607 16.9393L41.0607 22.9393C41.6464 23.5251 41.6464 24.4749 41.0607 25.0607L35.0607 31.0607C34.4749 31.6464 33.5251 31.6464 32.9393 31.0607C32.3536 30.4749 32.3536 29.5251 32.9393 28.9393L36.3787 25.5H20C19.1716 25.5 18.5 24.8284 18.5 24C18.5 23.1716 19.1716 22.5 20 22.5H36.3787L32.9393 19.0607C32.3536 18.4749 32.3536 17.5251 32.9393 16.9393Z" fill="#6B7684"/>
<path fill-rule="evenodd" clip-rule="evenodd" d="M24 9.5C20.1544 9.5 16.4662 11.0277 13.747 13.747C11.0277 16.4662 9.5 20.1544 9.5 24C9.5 24.8284 8.82843 25.5 8 25.5C7.17157 25.5 6.5 24.8284 6.5 24C6.5 19.3587 8.34374 14.9075 11.6256 11.6256C14.9075 8.34374 19.3587 6.5 24 6.5C24.8284 6.5 25.5 7.17157 25.5 8C25.5 8.82843 24.8284 9.5 24 9.5ZM10.5736 32.8282C11.2207 32.311 12.1646 32.4164 12.6818 33.0636C14.0387 34.7615 15.7607 36.1319 17.7199 37.0731C19.6791 38.0143 21.8251 38.502 23.9986 38.5C24.8271 38.4993 25.4993 39.1702 25.5 39.9986C25.5007 40.8271 24.8298 41.4993 24.0014 41.5C21.3772 41.5024 18.7862 40.9135 16.4209 39.7773C14.0555 38.641 11.9765 36.9864 10.3382 34.9364C9.82103 34.2893 9.9264 33.3454 10.5736 32.8282Z" fill="#6B7684"/>
</svg>
