<svg width="24" height="24" viewBox="0 0 24 24" fill="none" xmlns="http://www.w3.org/2000/svg">
<path d="M12.9953 2.37626L14.8508 5.73467C15.1051 6.19566 15.7493 6.63023 16.2815 6.68527L19.4493 7.05365C21.4776 7.28517 21.9892 8.70794 20.5949 10.2142L18.2194 12.7662C17.8229 13.1938 17.6121 14.0051 17.7653 14.5595L18.5651 17.534C19.1941 19.8824 17.9521 20.8683 15.7936 19.7302L12.7783 18.14C12.2291 17.8493 11.3526 17.8996 10.8315 18.2355L7.93267 20.1078C5.85749 21.4462 4.55135 20.5873 5.0244 18.187L5.62984 15.1492C5.74288 14.5814 5.48993 13.7924 5.0647 13.4067L2.5274 11.0964C1.03853 9.7353 1.45442 8.26796 3.45728 7.83627L6.5846 7.16445C7.11242 7.04672 7.72699 6.56331 7.94545 6.07486L9.57447 2.53961C10.4507 0.631181 11.9935 0.558598 12.9953 2.37626Z" stroke="#292D32" stroke-width="1.5" stroke-linecap="round" stroke-linejoin="round"/>
</svg>
