<svg width="24" height="24" viewBox="0 0 24 24" fill="none" xmlns="http://www.w3.org/2000/svg">
<path fill-rule="evenodd" clip-rule="evenodd" d="M7.74116 6.09799L7.286 5.71379L8.89288 2.22661L8.89316 2.22599C9.38264 1.16024 10.1737 0.360312 11.2022 0.311428C12.2375 0.262216 13.089 0.99259 13.652 2.01394L13.6521 2.01418L15.5073 5.37189L15.5076 5.3724C15.5614 5.47 15.6887 5.61177 15.8783 5.73836C16.068 5.86497 16.2469 5.92762 16.3586 5.93917L16.3681 5.94016L16.3681 5.94022L19.5344 6.30842L19.5353 6.30852C20.6756 6.43889 21.663 6.9387 22.0109 7.90082C22.357 8.85821 21.9263 9.87993 21.1452 10.7237L21.1438 10.7252L18.7694 13.2761L18.7691 13.2764C18.6765 13.3763 18.5735 13.5634 18.5129 13.8007C18.4519 14.0398 18.4559 14.2429 18.4882 14.3596L18.4896 14.3647L18.4896 14.3647L19.2894 17.3392L19.2895 17.3399C19.623 18.5847 19.5633 19.8352 18.6906 20.5272C17.8199 21.2175 16.5868 20.9962 15.4438 20.3936L15.4437 20.3935L12.4284 18.8033L12.4274 18.8028C12.3027 18.7368 12.0894 18.6885 11.833 18.7017C11.5775 18.7149 11.3634 18.785 11.2381 18.8656L11.2379 18.8658L8.33959 20.7377L8.33917 20.738C7.25111 21.4397 6.03585 21.7861 5.11002 21.1754C4.17491 20.5587 4.03978 19.3043 4.28855 18.0419L4.28887 18.0403L4.89427 15.0027L4.89431 15.0025C4.91971 14.8747 4.9092 14.6684 4.83546 14.4402C4.76144 14.2111 4.65084 14.0438 4.56086 13.9622L4.55976 13.9612L2.02246 11.6509L2.02136 11.6499C1.17739 10.8783 0.681726 9.89555 0.961602 8.9124C1.23931 7.93686 2.17297 7.34579 3.29926 7.10304L3.29976 7.10293L6.42358 6.43186C6.54943 6.40324 6.73247 6.31631 6.91385 6.17189C7.09757 6.02559 7.21441 5.87232 7.2608 5.76859L7.26424 5.76089L7.26429 5.76091L7.286 5.71379" fill="#292D32"/>
</svg>
