<svg width="24" height="24" viewBox="0 0 24 24" fill="none" xmlns="http://www.w3.org/2000/svg">
<path d="M2.5 14C2.36739 14 2.24021 14.0527 2.14645 14.1464C2.05268 14.2402 2 14.3674 2 14.5C2 14.6326 2.05268 14.7598 2.14645 14.8536C2.24021 14.9473 2.36739 15 2.5 15H4C4 16.0609 4.42143 17.0783 5.17157 17.8284C5.92172 18.5786 6.93913 19 8 19H16C17.0609 19 18.0783 18.5786 18.8284 17.8284C19.5786 17.0783 20 16.0609 20 15H21.5C21.6326 15 21.7598 14.9473 21.8536 14.8536C21.9473 14.7598 22 14.6326 22 14.5C22 14.3674 21.9473 14.2402 21.8536 14.1464C21.7598 14.0527 21.6326 14 21.5 14H2.5Z" fill="black"/>
<path fill-rule="evenodd" clip-rule="evenodd" d="M11.5525 5.02661L12 5.25011L12.4475 5.47361L12.4465 5.47511L12.4405 5.48761L12.4155 5.54261C12.2819 5.84092 12.1813 6.15294 12.1155 6.47311C11.9975 7.06261 12.041 7.58411 12.3535 7.89661C13.041 8.58411 12.9975 9.56261 12.8655 10.2231C12.7794 10.6438 12.6441 11.053 12.4625 11.4421L12.4525 11.4636L12.449 11.4701L12.448 11.4726L12.4475 11.4731L12 11.2501L11.5525 11.0266L11.5535 11.0251L11.5595 11.0126L11.5845 10.9576C11.7181 10.6593 11.8187 10.3473 11.8845 10.0271C12.0025 9.43761 11.959 8.91611 11.6465 8.60361C10.959 7.91611 11.0025 6.93761 11.1345 6.27711C11.2206 5.85639 11.3559 5.44725 11.5375 5.05811L11.5475 5.03661L11.551 5.03011L11.552 5.02811L11.5525 5.02661ZM7.58501 6.22061L8.00001 6.50061C8.41451 6.78011 8.41501 6.77961 8.41501 6.77961L8.40851 6.78961C8.36463 6.85959 8.32359 6.93132 8.28551 7.00461C8.19098 7.18404 8.11556 7.37291 8.06051 7.56811C7.94051 8.01411 7.98351 8.36611 8.29751 8.59811C9.10851 9.19911 9.06551 10.0976 8.90451 10.6931C8.83092 10.9577 8.72952 11.2138 8.60201 11.4571C8.54625 11.5643 8.48569 11.6689 8.42051 11.7706L8.41651 11.7766L8.41551 11.7786L8.41501 11.7791C8.41501 11.7791 8.41451 11.7801 8.00001 11.5001C7.58551 11.2201 7.58501 11.2206 7.58501 11.2206L7.59151 11.2111L7.61851 11.1681C7.65216 11.1117 7.68417 11.0544 7.71451 10.9961C7.79201 10.8471 7.88101 10.6471 7.93951 10.4321C8.05951 9.98611 8.01651 9.63461 7.70251 9.40211C6.89151 8.80111 6.93451 7.90311 7.09551 7.30711C7.17801 7.00111 7.30001 6.73211 7.39801 6.54311C7.45382 6.43613 7.51438 6.33169 7.57951 6.23011L7.58301 6.22411L7.58451 6.22161L7.58501 6.22061ZM16.085 6.22061L16.5 6.50061C16.9145 6.78011 16.915 6.77961 16.915 6.77961L16.9085 6.78961C16.8646 6.85959 16.8236 6.93132 16.7855 7.00461C16.691 7.18404 16.6156 7.37291 16.5605 7.56811C16.4405 8.01411 16.4835 8.36611 16.7975 8.59811C17.6085 9.19911 17.5655 10.0976 17.4045 10.6931C17.3309 10.9577 17.2295 11.2138 17.102 11.4571C17.0464 11.5643 16.986 11.6689 16.921 11.7706L16.917 11.7766L16.9155 11.7786L16.915 11.7791C16.915 11.7791 16.9145 11.7801 16.5 11.5001C16.0855 11.2201 16.085 11.2206 16.085 11.2206L16.0915 11.2111L16.1185 11.1681C16.1522 11.1117 16.1842 11.0544 16.2145 10.9961C16.292 10.8471 16.381 10.6471 16.4395 10.4321C16.5595 9.98611 16.5165 9.63461 16.2025 9.40211C15.3915 8.80111 15.4345 7.90311 15.5955 7.30711C15.678 7.00111 15.8 6.73211 15.898 6.54311C15.9537 6.43614 16.014 6.3317 16.079 6.23011L16.083 6.22411L16.0845 6.22161L16.0855 6.22061H16.085Z" fill="black"/>
</svg>
