<svg width="48" height="48" viewBox="0 0 48 48" fill="none" xmlns="http://www.w3.org/2000/svg">
<path d="M38.2394 18.2388C37.4594 18.2388 36.8394 18.8588 36.8394 19.6388V22.7987C36.8394 29.8787 31.0794 35.6388 23.9994 35.6388C16.9194 35.6388 11.1594 29.8787 11.1594 22.7987V19.6188C11.1594 18.8388 10.5394 18.2188 9.75938 18.2188C8.97938 18.2188 8.35938 18.8388 8.35938 19.6188V22.7788C8.35938 30.9188 14.6194 37.6188 22.5994 38.3388V42.5987C22.5994 43.3787 23.2194 43.9988 23.9994 43.9988C24.7794 43.9988 25.3994 43.3787 25.3994 42.5987V38.3388C33.3594 37.6388 39.6394 30.9188 39.6394 22.7788V19.6188C39.6194 18.8588 38.9994 18.2388 38.2394 18.2388Z" fill="#6B7684"/>
<path d="M24.0002 4C19.1202 4 15.1602 7.96 15.1602 12.84V23.08C15.1602 27.96 19.1202 31.92 24.0002 31.92C28.8802 31.92 32.8402 27.96 32.8402 23.08V12.84C32.8402 7.96 28.8802 4 24.0002 4ZM26.6202 17.9C26.4802 18.42 26.0202 18.76 25.5002 18.76C25.4002 18.76 25.3002 18.74 25.2002 18.72C24.4202 18.5 23.6002 18.5 22.8202 18.72C22.1802 18.9 21.5602 18.52 21.4002 17.9C21.2202 17.28 21.6002 16.64 22.2202 16.48C23.4002 16.16 24.6402 16.16 25.8202 16.48C26.4202 16.64 26.7802 17.28 26.6202 17.9ZM27.6802 14.02C27.5002 14.5 27.0602 14.78 26.5802 14.78C26.4402 14.78 26.3202 14.76 26.1802 14.72C24.7802 14.2 23.2202 14.2 21.8202 14.72C21.2202 14.94 20.5402 14.62 20.3202 14.02C20.1002 13.42 20.4202 12.74 21.0202 12.54C22.9402 11.84 25.0602 11.84 26.9802 12.54C27.5802 12.76 27.9002 13.42 27.6802 14.02Z" fill="#6B7684"/>
</svg>
