<svg width="14" height="15" viewBox="0 0 14 15" fill="none" xmlns="http://www.w3.org/2000/svg">
<path d="M7.54688 10.3437C7.54688 10.4519 7.5148 10.5576 7.45471 10.6476C7.39462 10.7375 7.30921 10.8076 7.20928 10.849C7.10935 10.8904 6.9994 10.9012 6.89331 10.8801C6.78723 10.859 6.68979 10.8069 6.6133 10.7304C6.53682 10.654 6.48474 10.5565 6.46364 10.4504C6.44253 10.3444 6.45336 10.2344 6.49476 10.1345C6.53615 10.0345 6.60624 9.94913 6.69618 9.88904C6.78611 9.82895 6.89184 9.79687 7 9.79687C7.14504 9.79687 7.28414 9.85449 7.3867 9.95705C7.48926 10.0596 7.54688 10.1987 7.54688 10.3437ZM7 4.54687C5.85157 4.54687 4.92188 5.38086 4.92188 6.40625V6.625C4.92188 6.71202 4.95645 6.79548 5.01798 6.85702C5.07952 6.91855 5.16298 6.95312 5.25 6.95312C5.33703 6.95312 5.42049 6.91855 5.48202 6.85702C5.54356 6.79548 5.57813 6.71202 5.57813 6.625V6.40625C5.57813 5.74289 6.21578 5.20312 7 5.20312C7.78422 5.20312 8.42188 5.74289 8.42188 6.40625C8.42188 7.06961 7.78422 7.60937 7 7.60937C6.91298 7.60937 6.82952 7.64394 6.76798 7.70548C6.70645 7.76702 6.67188 7.85048 6.67188 7.9375V8.375C6.67188 8.46202 6.70645 8.54548 6.76798 8.60702C6.82952 8.66855 6.91298 8.70312 7 8.70312C7.08703 8.70312 7.17049 8.66855 7.23202 8.60702C7.29356 8.54548 7.32813 8.46202 7.32813 8.375V8.24266C8.31852 8.10156 9.07813 7.33156 9.07813 6.40625C9.07813 5.38086 8.14844 4.54687 7 4.54687ZM12.5781 7.5C12.5781 8.60325 12.251 9.68172 11.638 10.599C11.0251 11.5164 10.1539 12.2313 9.13466 12.6535C8.11539 13.0757 6.99381 13.1862 5.91176 12.9709C4.82971 12.7557 3.83579 12.2244 3.05567 11.4443C2.27556 10.6642 1.74429 9.67029 1.52906 8.58824C1.31383 7.50619 1.42429 6.38461 1.84649 5.36534C2.26868 4.34607 2.98364 3.47489 3.90096 2.86196C4.81828 2.24903 5.89675 1.92188 7 1.92188C8.47888 1.92361 9.89669 2.51186 10.9424 3.55759C11.9881 4.60331 12.5764 6.02112 12.5781 7.5ZM11.9219 7.5C11.9219 6.52654 11.6332 5.57495 11.0924 4.76555C10.5516 3.95615 9.78288 3.32531 8.88352 2.95278C7.98417 2.58026 6.99454 2.48279 6.03979 2.6727C5.08504 2.86261 4.20805 3.33137 3.51971 4.01971C2.83137 4.70805 2.36261 5.58504 2.1727 6.53979C1.98279 7.49454 2.08026 8.48416 2.45278 9.38352C2.82531 10.2829 3.45616 11.0516 4.26556 11.5924C5.07495 12.1332 6.02655 12.4219 7 12.4219C8.30492 12.4204 9.55598 11.9014 10.4787 10.9787C11.4014 10.056 11.9204 8.80492 11.9219 7.5Z" fill="#6B7684"/>
</svg>
