<svg width="16" height="17" viewBox="0 0 16 17" fill="none" xmlns="http://www.w3.org/2000/svg">
<path d="M10.7601 3.22629L4.74008 5.22629C0.693411 6.57963 0.693411 8.78629 4.74008 10.133L6.52674 10.7263L7.12008 12.513C8.46675 16.5596 10.6801 16.5596 12.0267 12.513L14.0334 6.49962C14.9267 3.79962 13.4601 2.32629 10.7601 3.22629ZM10.9734 6.81296L8.44008 9.35962C8.34008 9.45963 8.21341 9.50629 8.08675 9.50629C7.96008 9.50629 7.83341 9.45963 7.73341 9.35962C7.54008 9.16629 7.54008 8.84629 7.73341 8.65296L10.2667 6.10629C10.4601 5.91296 10.7801 5.91296 10.9734 6.10629C11.1667 6.29963 11.1667 6.61963 10.9734 6.81296Z" fill="#5796F3"/>
</svg>
