<svg width="14" height="14" viewBox="0 0 14 14" fill="none" xmlns="http://www.w3.org/2000/svg">
<path d="M12.3278 4.55445V4.55582V9.44416C12.3278 10.4064 12.0429 11.1144 11.5759 11.5814C11.1089 12.0484 10.4009 12.3333 9.43866 12.3333H4.55616C3.59394 12.3333 2.88604 12.0485 2.4191 11.5809C1.95209 11.1133 1.66699 10.4038 1.66699 9.43832V4.55582C1.66699 3.59359 1.95188 2.88554 2.41888 2.41854C2.88588 1.95154 3.59393 1.66666 4.55616 1.66666H9.44449C10.4068 1.66666 11.1147 1.95158 11.5808 2.41832C12.0469 2.88495 12.3305 3.59254 12.3278 4.55445ZM4.91199 2.27082C4.39668 2.27082 3.97449 2.69301 3.97449 3.20832V5.48332C3.97449 5.7439 4.08244 5.98066 4.2558 6.15107C3.42435 6.4283 2.82533 7.21709 2.82533 8.13749C2.82533 8.91619 3.25205 9.59119 3.88205 9.94903C3.9231 9.97235 3.95057 9.99931 3.96474 10.0195C3.97138 10.029 3.97375 10.0348 3.97449 10.0373V10.7917C3.97449 11.307 4.39668 11.7292 4.91199 11.7292C5.4273 11.7292 5.84949 11.307 5.84949 10.7917V10.0372C5.85023 10.0348 5.85258 10.0291 5.85919 10.0196C5.87328 9.9995 5.90058 9.97273 5.94136 9.94965C6.57136 9.5931 7.00449 8.91888 7.00449 8.13749C7.00449 7.21002 6.40004 6.42609 5.56867 6.15059C5.74174 5.98022 5.84949 5.74365 5.84949 5.48332V3.20832C5.84949 2.69301 5.4273 2.27082 4.91199 2.27082ZM9.08866 11.7292C9.60397 11.7292 10.0262 11.307 10.0262 10.7917V8.51666C10.0262 8.25405 9.91652 8.01563 9.74079 7.84495C10.5733 7.57068 11.1753 6.78597 11.1753 5.86249C11.1753 5.08379 10.7486 4.40879 10.1186 4.05095C10.0775 4.02763 10.0501 4.00067 10.0359 3.98043C10.0293 3.97094 10.0269 3.96515 10.0262 3.96271V3.20832C10.0262 2.69301 9.60397 2.27082 9.08866 2.27082C8.57335 2.27082 8.15116 2.69301 8.15116 3.20832V3.95691C8.15042 3.95933 8.14807 3.9651 8.14146 3.97453C8.12737 3.99465 8.10007 4.02141 8.05929 4.0445C7.42929 4.40104 6.99616 5.07527 6.99616 5.85666C6.99616 6.78579 7.60278 7.57086 8.43644 7.84503C8.26076 8.01571 8.15116 8.2541 8.15116 8.51666V10.7917C8.15116 11.307 8.57335 11.7292 9.08866 11.7292Z" fill="#6B7684" stroke="#6B7684"/>
</svg>
