<svg width="48" height="48" viewBox="0 0 48 48" fill="none" xmlns="http://www.w3.org/2000/svg">
<path d="M39.2493 14.2807C38.566 13.9141 37.1327 13.5307 35.1827 14.8974L32.7327 16.6307C32.5493 11.4474 30.2993 9.41406 24.8327 9.41406H14.8327C9.13268 9.41406 6.91602 11.6307 6.91602 17.3307V30.6641C6.91602 34.4974 8.99935 38.5807 14.8327 38.5807H24.8327C30.2993 38.5807 32.5493 36.5474 32.7327 31.3641L35.1827 33.0974C36.216 33.8307 37.116 34.0641 37.8327 34.0641C38.4493 34.0641 38.9327 33.8807 39.2493 33.7141C39.9327 33.3641 41.0827 32.4141 41.0827 30.0307V17.9641C41.0827 15.5807 39.9327 14.6307 39.2493 14.2807ZM22.3327 22.9641C20.616 22.9641 19.1993 21.5641 19.1993 19.8307C19.1993 18.0974 20.616 16.6974 22.3327 16.6974C24.0493 16.6974 25.466 18.0974 25.466 19.8307C25.466 21.5641 24.0493 22.9641 22.3327 22.9641Z" fill="#6B7684"/>
</svg>
